<mxfile host="app.diagrams.net" modified="2022-09-29T14:30:01.088Z" agent="5.0 (Windows NT 10.0; Win64; x64) AppleWebKit/537.36 (KHTML, like Gecko) Chrome/105.0.0.0 Safari/537.36" etag="FLnZB2KTh6nsKjQBM_ym" version="20.3.7" type="github">
  <diagram id="C5RBs43oDa-KdzZeNtuy" name="Page-1">
    <mxGraphModel dx="1038" dy="521" grid="1" gridSize="10" guides="1" tooltips="1" connect="1" arrows="1" fold="1" page="1" pageScale="1" pageWidth="827" pageHeight="1169" math="0" shadow="0">
      <root>
        <mxCell id="WIyWlLk6GJQsqaUBKTNV-0" />
        <mxCell id="WIyWlLk6GJQsqaUBKTNV-1" parent="WIyWlLk6GJQsqaUBKTNV-0" />
        <mxCell id="LsHVC8Dt1AWY-7BEpEHS-9" style="edgeStyle=orthogonalEdgeStyle;rounded=0;orthogonalLoop=1;jettySize=auto;html=1;entryX=0.5;entryY=0;entryDx=0;entryDy=0;startArrow=none;" edge="1" parent="WIyWlLk6GJQsqaUBKTNV-1" source="LsHVC8Dt1AWY-7BEpEHS-10" target="LsHVC8Dt1AWY-7BEpEHS-5">
          <mxGeometry relative="1" as="geometry" />
        </mxCell>
        <mxCell id="LsHVC8Dt1AWY-7BEpEHS-19" style="edgeStyle=orthogonalEdgeStyle;rounded=0;orthogonalLoop=1;jettySize=auto;html=1;entryX=0.5;entryY=1;entryDx=0;entryDy=0;" edge="1" parent="WIyWlLk6GJQsqaUBKTNV-1" source="LsHVC8Dt1AWY-7BEpEHS-2" target="LsHVC8Dt1AWY-7BEpEHS-14">
          <mxGeometry relative="1" as="geometry" />
        </mxCell>
        <mxCell id="LsHVC8Dt1AWY-7BEpEHS-20" style="edgeStyle=orthogonalEdgeStyle;rounded=0;orthogonalLoop=1;jettySize=auto;html=1;entryX=0.5;entryY=1;entryDx=0;entryDy=0;" edge="1" parent="WIyWlLk6GJQsqaUBKTNV-1" source="LsHVC8Dt1AWY-7BEpEHS-2" target="LsHVC8Dt1AWY-7BEpEHS-13">
          <mxGeometry relative="1" as="geometry" />
        </mxCell>
        <mxCell id="LsHVC8Dt1AWY-7BEpEHS-28" style="edgeStyle=orthogonalEdgeStyle;rounded=0;orthogonalLoop=1;jettySize=auto;html=1;entryX=0.5;entryY=1;entryDx=0;entryDy=0;" edge="1" parent="WIyWlLk6GJQsqaUBKTNV-1" source="LsHVC8Dt1AWY-7BEpEHS-2" target="LsHVC8Dt1AWY-7BEpEHS-12">
          <mxGeometry relative="1" as="geometry" />
        </mxCell>
        <mxCell id="LsHVC8Dt1AWY-7BEpEHS-29" style="edgeStyle=orthogonalEdgeStyle;rounded=0;orthogonalLoop=1;jettySize=auto;html=1;entryX=0.5;entryY=1;entryDx=0;entryDy=0;" edge="1" parent="WIyWlLk6GJQsqaUBKTNV-1" source="LsHVC8Dt1AWY-7BEpEHS-2" target="LsHVC8Dt1AWY-7BEpEHS-16">
          <mxGeometry relative="1" as="geometry" />
        </mxCell>
        <mxCell id="LsHVC8Dt1AWY-7BEpEHS-2" value="&lt;font style=&quot;vertical-align: inherit;&quot;&gt;&lt;font style=&quot;vertical-align: inherit;&quot;&gt;TORNEO&lt;/font&gt;&lt;/font&gt;" style="rounded=0;whiteSpace=wrap;html=1;" vertex="1" parent="WIyWlLk6GJQsqaUBKTNV-1">
          <mxGeometry x="340" y="210" width="120" height="30" as="geometry" />
        </mxCell>
        <mxCell id="LsHVC8Dt1AWY-7BEpEHS-36" style="edgeStyle=orthogonalEdgeStyle;rounded=0;orthogonalLoop=1;jettySize=auto;html=1;entryX=0.5;entryY=0;entryDx=0;entryDy=0;endArrow=classic;endFill=1;" edge="1" parent="WIyWlLk6GJQsqaUBKTNV-1" source="LsHVC8Dt1AWY-7BEpEHS-5" target="LsHVC8Dt1AWY-7BEpEHS-35">
          <mxGeometry relative="1" as="geometry" />
        </mxCell>
        <mxCell id="LsHVC8Dt1AWY-7BEpEHS-37" style="edgeStyle=orthogonalEdgeStyle;rounded=0;orthogonalLoop=1;jettySize=auto;html=1;endArrow=classic;endFill=1;" edge="1" parent="WIyWlLk6GJQsqaUBKTNV-1" source="LsHVC8Dt1AWY-7BEpEHS-5" target="LsHVC8Dt1AWY-7BEpEHS-34">
          <mxGeometry relative="1" as="geometry" />
        </mxCell>
        <mxCell id="LsHVC8Dt1AWY-7BEpEHS-38" style="edgeStyle=orthogonalEdgeStyle;rounded=0;orthogonalLoop=1;jettySize=auto;html=1;entryX=0.5;entryY=0;entryDx=0;entryDy=0;endArrow=classic;endFill=1;" edge="1" parent="WIyWlLk6GJQsqaUBKTNV-1" source="LsHVC8Dt1AWY-7BEpEHS-5" target="LsHVC8Dt1AWY-7BEpEHS-7">
          <mxGeometry relative="1" as="geometry" />
        </mxCell>
        <mxCell id="LsHVC8Dt1AWY-7BEpEHS-5" value="&lt;font style=&quot;vertical-align: inherit;&quot;&gt;&lt;font style=&quot;vertical-align: inherit;&quot;&gt;Team&lt;/font&gt;&lt;/font&gt;" style="rounded=0;whiteSpace=wrap;html=1;" vertex="1" parent="WIyWlLk6GJQsqaUBKTNV-1">
          <mxGeometry x="550" y="370" width="120" height="40" as="geometry" />
        </mxCell>
        <mxCell id="LsHVC8Dt1AWY-7BEpEHS-49" style="edgeStyle=orthogonalEdgeStyle;rounded=0;orthogonalLoop=1;jettySize=auto;html=1;entryX=0.5;entryY=0;entryDx=0;entryDy=0;endArrow=classic;endFill=1;" edge="1" parent="WIyWlLk6GJQsqaUBKTNV-1" source="LsHVC8Dt1AWY-7BEpEHS-7" target="LsHVC8Dt1AWY-7BEpEHS-43">
          <mxGeometry relative="1" as="geometry" />
        </mxCell>
        <mxCell id="LsHVC8Dt1AWY-7BEpEHS-50" style="edgeStyle=orthogonalEdgeStyle;rounded=0;orthogonalLoop=1;jettySize=auto;html=1;endArrow=classic;endFill=1;" edge="1" parent="WIyWlLk6GJQsqaUBKTNV-1" source="LsHVC8Dt1AWY-7BEpEHS-7" target="LsHVC8Dt1AWY-7BEpEHS-42">
          <mxGeometry relative="1" as="geometry" />
        </mxCell>
        <mxCell id="LsHVC8Dt1AWY-7BEpEHS-51" style="edgeStyle=orthogonalEdgeStyle;rounded=0;orthogonalLoop=1;jettySize=auto;html=1;endArrow=classic;endFill=1;entryX=0.67;entryY=0.011;entryDx=0;entryDy=0;entryPerimeter=0;" edge="1" parent="WIyWlLk6GJQsqaUBKTNV-1" source="LsHVC8Dt1AWY-7BEpEHS-7" target="LsHVC8Dt1AWY-7BEpEHS-41">
          <mxGeometry relative="1" as="geometry">
            <mxPoint x="240" y="630" as="targetPoint" />
          </mxGeometry>
        </mxCell>
        <mxCell id="LsHVC8Dt1AWY-7BEpEHS-52" style="edgeStyle=orthogonalEdgeStyle;rounded=0;orthogonalLoop=1;jettySize=auto;html=1;entryX=0.5;entryY=0;entryDx=0;entryDy=0;endArrow=classic;endFill=1;" edge="1" parent="WIyWlLk6GJQsqaUBKTNV-1" source="LsHVC8Dt1AWY-7BEpEHS-7" target="LsHVC8Dt1AWY-7BEpEHS-39">
          <mxGeometry relative="1" as="geometry" />
        </mxCell>
        <mxCell id="LsHVC8Dt1AWY-7BEpEHS-53" style="edgeStyle=orthogonalEdgeStyle;rounded=0;orthogonalLoop=1;jettySize=auto;html=1;entryX=0.5;entryY=0;entryDx=0;entryDy=0;endArrow=classic;endFill=1;" edge="1" parent="WIyWlLk6GJQsqaUBKTNV-1" source="LsHVC8Dt1AWY-7BEpEHS-7" target="LsHVC8Dt1AWY-7BEpEHS-44">
          <mxGeometry relative="1" as="geometry" />
        </mxCell>
        <mxCell id="LsHVC8Dt1AWY-7BEpEHS-54" style="edgeStyle=orthogonalEdgeStyle;rounded=0;orthogonalLoop=1;jettySize=auto;html=1;entryX=0.5;entryY=0;entryDx=0;entryDy=0;endArrow=classic;endFill=1;" edge="1" parent="WIyWlLk6GJQsqaUBKTNV-1" source="LsHVC8Dt1AWY-7BEpEHS-7" target="LsHVC8Dt1AWY-7BEpEHS-48">
          <mxGeometry relative="1" as="geometry" />
        </mxCell>
        <mxCell id="LsHVC8Dt1AWY-7BEpEHS-55" style="edgeStyle=orthogonalEdgeStyle;rounded=0;orthogonalLoop=1;jettySize=auto;html=1;entryX=0.5;entryY=0;entryDx=0;entryDy=0;endArrow=classic;endFill=1;" edge="1" parent="WIyWlLk6GJQsqaUBKTNV-1" source="LsHVC8Dt1AWY-7BEpEHS-7" target="LsHVC8Dt1AWY-7BEpEHS-47">
          <mxGeometry relative="1" as="geometry" />
        </mxCell>
        <mxCell id="LsHVC8Dt1AWY-7BEpEHS-56" style="edgeStyle=orthogonalEdgeStyle;rounded=0;orthogonalLoop=1;jettySize=auto;html=1;endArrow=classic;endFill=1;" edge="1" parent="WIyWlLk6GJQsqaUBKTNV-1" source="LsHVC8Dt1AWY-7BEpEHS-7" target="LsHVC8Dt1AWY-7BEpEHS-46">
          <mxGeometry relative="1" as="geometry" />
        </mxCell>
        <mxCell id="LsHVC8Dt1AWY-7BEpEHS-57" style="edgeStyle=orthogonalEdgeStyle;rounded=0;orthogonalLoop=1;jettySize=auto;html=1;entryX=0.5;entryY=0;entryDx=0;entryDy=0;endArrow=classic;endFill=1;" edge="1" parent="WIyWlLk6GJQsqaUBKTNV-1" source="LsHVC8Dt1AWY-7BEpEHS-7" target="LsHVC8Dt1AWY-7BEpEHS-45">
          <mxGeometry relative="1" as="geometry" />
        </mxCell>
        <mxCell id="LsHVC8Dt1AWY-7BEpEHS-7" value="&lt;font style=&quot;vertical-align: inherit;&quot;&gt;&lt;font style=&quot;vertical-align: inherit;&quot;&gt;PARTIDO&lt;/font&gt;&lt;/font&gt;" style="rounded=0;whiteSpace=wrap;html=1;strokeColor=default;" vertex="1" parent="WIyWlLk6GJQsqaUBKTNV-1">
          <mxGeometry x="325" y="510" width="126" height="30" as="geometry" />
        </mxCell>
        <mxCell id="LsHVC8Dt1AWY-7BEpEHS-12" value="&lt;font style=&quot;vertical-align: inherit;&quot;&gt;&lt;font style=&quot;vertical-align: inherit;&quot;&gt;nombre torneo&lt;/font&gt;&lt;/font&gt;" style="ellipse;whiteSpace=wrap;html=1;" vertex="1" parent="WIyWlLk6GJQsqaUBKTNV-1">
          <mxGeometry x="470" y="40" width="70" height="40" as="geometry" />
        </mxCell>
        <mxCell id="LsHVC8Dt1AWY-7BEpEHS-13" value="&lt;font style=&quot;vertical-align: inherit;&quot;&gt;&lt;font style=&quot;vertical-align: inherit;&quot;&gt;&lt;font style=&quot;vertical-align: inherit;&quot;&gt;&lt;font style=&quot;vertical-align: inherit;&quot;&gt;pais&lt;/font&gt;&lt;/font&gt;&lt;/font&gt;&lt;/font&gt;" style="ellipse;whiteSpace=wrap;html=1;" vertex="1" parent="WIyWlLk6GJQsqaUBKTNV-1">
          <mxGeometry x="320" y="40" width="70" height="40" as="geometry" />
        </mxCell>
        <mxCell id="LsHVC8Dt1AWY-7BEpEHS-14" value="&lt;font style=&quot;vertical-align: inherit;&quot;&gt;&lt;font style=&quot;vertical-align: inherit;&quot;&gt;id&lt;/font&gt;&lt;/font&gt;" style="ellipse;whiteSpace=wrap;html=1;" vertex="1" parent="WIyWlLk6GJQsqaUBKTNV-1">
          <mxGeometry x="160" y="40" width="70" height="40" as="geometry" />
        </mxCell>
        <mxCell id="LsHVC8Dt1AWY-7BEpEHS-16" value="&lt;font style=&quot;vertical-align: inherit;&quot;&gt;&lt;font style=&quot;vertical-align: inherit;&quot;&gt;sede&lt;/font&gt;&lt;/font&gt;" style="ellipse;whiteSpace=wrap;html=1;" vertex="1" parent="WIyWlLk6GJQsqaUBKTNV-1">
          <mxGeometry x="610" y="40" width="70" height="40" as="geometry" />
        </mxCell>
        <mxCell id="LsHVC8Dt1AWY-7BEpEHS-32" style="rounded=0;orthogonalLoop=1;jettySize=auto;html=1;entryX=0.5;entryY=1;entryDx=0;entryDy=0;edgeStyle=orthogonalEdgeStyle;endArrow=oval;endFill=1;" edge="1" parent="WIyWlLk6GJQsqaUBKTNV-1" source="LsHVC8Dt1AWY-7BEpEHS-10" target="LsHVC8Dt1AWY-7BEpEHS-2">
          <mxGeometry relative="1" as="geometry" />
        </mxCell>
        <mxCell id="LsHVC8Dt1AWY-7BEpEHS-10" value="&lt;font style=&quot;vertical-align: inherit;&quot;&gt;&lt;font style=&quot;vertical-align: inherit;&quot;&gt;juega&lt;/font&gt;&lt;/font&gt;" style="rhombus;whiteSpace=wrap;html=1;" vertex="1" parent="WIyWlLk6GJQsqaUBKTNV-1">
          <mxGeometry x="570" y="250" width="80" height="70" as="geometry" />
        </mxCell>
        <mxCell id="LsHVC8Dt1AWY-7BEpEHS-34" value="visitante" style="ellipse;whiteSpace=wrap;html=1;" vertex="1" parent="WIyWlLk6GJQsqaUBKTNV-1">
          <mxGeometry x="640" y="450" width="70" height="40" as="geometry" />
        </mxCell>
        <mxCell id="LsHVC8Dt1AWY-7BEpEHS-35" value="local" style="ellipse;whiteSpace=wrap;html=1;" vertex="1" parent="WIyWlLk6GJQsqaUBKTNV-1">
          <mxGeometry x="520" y="450" width="70" height="40" as="geometry" />
        </mxCell>
        <mxCell id="LsHVC8Dt1AWY-7BEpEHS-39" value="sede" style="ellipse;whiteSpace=wrap;html=1;" vertex="1" parent="WIyWlLk6GJQsqaUBKTNV-1">
          <mxGeometry x="280" y="640" width="60" height="50" as="geometry" />
        </mxCell>
        <mxCell id="LsHVC8Dt1AWY-7BEpEHS-41" value="gol visitante" style="ellipse;whiteSpace=wrap;html=1;" vertex="1" parent="WIyWlLk6GJQsqaUBKTNV-1">
          <mxGeometry x="186" y="640" width="80" height="55" as="geometry" />
        </mxCell>
        <mxCell id="LsHVC8Dt1AWY-7BEpEHS-42" value="gol local" style="ellipse;whiteSpace=wrap;html=1;" vertex="1" parent="WIyWlLk6GJQsqaUBKTNV-1">
          <mxGeometry x="110" y="640" width="70" height="50" as="geometry" />
        </mxCell>
        <mxCell id="LsHVC8Dt1AWY-7BEpEHS-43" value="juego-id" style="ellipse;whiteSpace=wrap;html=1;" vertex="1" parent="WIyWlLk6GJQsqaUBKTNV-1">
          <mxGeometry x="10" y="640" width="80" height="50" as="geometry" />
        </mxCell>
        <mxCell id="LsHVC8Dt1AWY-7BEpEHS-44" value="pais" style="ellipse;whiteSpace=wrap;html=1;" vertex="1" parent="WIyWlLk6GJQsqaUBKTNV-1">
          <mxGeometry x="350" y="640" width="76" height="50" as="geometry" />
        </mxCell>
        <mxCell id="LsHVC8Dt1AWY-7BEpEHS-45" value="fecha" style="ellipse;whiteSpace=wrap;html=1;" vertex="1" parent="WIyWlLk6GJQsqaUBKTNV-1">
          <mxGeometry x="720" y="640" width="70" height="50" as="geometry" />
        </mxCell>
        <mxCell id="LsHVC8Dt1AWY-7BEpEHS-46" value="equipo local" style="ellipse;whiteSpace=wrap;html=1;" vertex="1" parent="WIyWlLk6GJQsqaUBKTNV-1">
          <mxGeometry x="630" y="640" width="80" height="40" as="geometry" />
        </mxCell>
        <mxCell id="LsHVC8Dt1AWY-7BEpEHS-47" value="equipo visitante" style="ellipse;whiteSpace=wrap;html=1;" vertex="1" parent="WIyWlLk6GJQsqaUBKTNV-1">
          <mxGeometry x="530" y="640" width="90" height="50" as="geometry" />
        </mxCell>
        <mxCell id="LsHVC8Dt1AWY-7BEpEHS-48" value="neutral (F,V)" style="ellipse;whiteSpace=wrap;html=1;" vertex="1" parent="WIyWlLk6GJQsqaUBKTNV-1">
          <mxGeometry x="440" y="640" width="80" height="50" as="geometry" />
        </mxCell>
        <mxCell id="LsHVC8Dt1AWY-7BEpEHS-59" value="" style="endArrow=classic;startArrow=classic;html=1;rounded=0;exitX=0.5;exitY=0;exitDx=0;exitDy=0;entryX=1;entryY=1;entryDx=0;entryDy=0;" edge="1" parent="WIyWlLk6GJQsqaUBKTNV-1" source="LsHVC8Dt1AWY-7BEpEHS-7" target="LsHVC8Dt1AWY-7BEpEHS-62">
          <mxGeometry width="50" height="50" relative="1" as="geometry">
            <mxPoint x="390" y="420" as="sourcePoint" />
            <mxPoint x="260" y="440" as="targetPoint" />
            <Array as="points" />
          </mxGeometry>
        </mxCell>
        <mxCell id="LsHVC8Dt1AWY-7BEpEHS-60" value="" style="rhombus;whiteSpace=wrap;html=1;strokeColor=default;" vertex="1" parent="WIyWlLk6GJQsqaUBKTNV-1">
          <mxGeometry x="190" y="370" width="80" height="80" as="geometry" />
        </mxCell>
        <mxCell id="LsHVC8Dt1AWY-7BEpEHS-63" style="edgeStyle=orthogonalEdgeStyle;rounded=0;orthogonalLoop=1;jettySize=auto;html=1;endArrow=classic;endFill=1;" edge="1" parent="WIyWlLk6GJQsqaUBKTNV-1" source="LsHVC8Dt1AWY-7BEpEHS-62">
          <mxGeometry relative="1" as="geometry">
            <mxPoint x="90" y="310" as="targetPoint" />
          </mxGeometry>
        </mxCell>
        <mxCell id="LsHVC8Dt1AWY-7BEpEHS-62" value="partido penales" style="rounded=0;whiteSpace=wrap;html=1;strokeColor=default;gradientColor=default;fillColor=none;" vertex="1" parent="WIyWlLk6GJQsqaUBKTNV-1">
          <mxGeometry x="153" y="370" width="154" height="80" as="geometry" />
        </mxCell>
        <mxCell id="LsHVC8Dt1AWY-7BEpEHS-64" value="ganador" style="ellipse;whiteSpace=wrap;html=1;strokeColor=default;fillColor=none;gradientColor=default;" vertex="1" parent="WIyWlLk6GJQsqaUBKTNV-1">
          <mxGeometry x="50" y="270" width="77" height="40" as="geometry" />
        </mxCell>
      </root>
    </mxGraphModel>
  </diagram>
</mxfile>
